PathFileType	4	(X/Y/Z)	/Users/itak/Documents/Research/Walk-IL/dataset/trc/00139_00007.trc
DataRate	CameraRate	NumFrames	NumMarkers	Units	OrigDataRate	OrigDataStartFrame	OrigNumFrames
100.000000	100.000000	4	53	mm	100.000000	205	547
Frame#	Time	RPSI			LPSI			L3			STRN			T10			C7			CLAV			RBAK			LBAK			LSHO			LUPA			LAEL			LAOL			LWTS			LWPS			LFRA			LIFD			LHPS			LHTS			RSHO			RUPA			RAEL			RAOL			RWTS			RWPS			RFRA			RIFD			RHTS			RHPS			RBHD			LFHD			RFHD			LBHD			LHIP			RHIP			RASI			LASI			LKNE			LTHI			LANK			LTIP			LTOE			LMT1			LMT5			LHEE			RKNE			RTHI			RANK			RTIP			RTOE			RMT1			RMT5			RHEE			
		X1	Y1	Z1	X2	Y2	Z2	X3	Y3	Z3	X4	Y4	Z4	X5	Y5	Z5	X6	Y6	Z6	X7	Y7	Z7	X8	Y8	Z8	X9	Y9	Z9	X10	Y10	Z10	X11	Y11	Z11	X12	Y12	Z12	X13	Y13	Z13	X14	Y14	Z14	X15	Y15	Z15	X16	Y16	Z16	X17	Y17	Z17	X18	Y18	Z18	X19	Y19	Z19	X20	Y20	Z20	X21	Y21	Z21	X22	Y22	Z22	X23	Y23	Z23	X24	Y24	Z24	X25	Y25	Z25	X26	Y26	Z26	X27	Y27	Z27	X28	Y28	Z28	X29	Y29	Z29	X30	Y30	Z30	X31	Y31	Z31	X32	Y32	Z32	X33	Y33	Z33	X34	Y34	Z34	X35	Y35	Z35	X36	Y36	Z36	X37	Y37	Z37	X38	Y38	Z38	X39	Y39	Z39	X40	Y40	Z40	X41	Y41	Z41	X42	Y42	Z42	X43	Y43	Z43	X44	Y44	Z44	X45	Y45	Z45	X46	Y46	Z46	X47	Y47	Z47	X48	Y48	Z48	X49	Y49	Z49	X50	Y50	Z50	X51	Y51	Z51	X52	Y52	Z52	X53	Y53	Z53	

206	2.05	-617.243896484375	1116.031860351562	1266.86962890625	-624.9910888671875	1118.271484375	1131.659423828125	-626.0175170898438	1156.456420898438	1198.789306640625	-386.2066955566406	1334.153076171875	1189.43798828125	-644.4219360351562	1311.8857421875	1203.916137695312	-575.4961547851562	1598.29638671875	1187.020874023438	-407.2170715332031	1472.024658203125	1184.556518554688	-647.0260009765625	1422.610961914062	1279.165283203125	-590.4066162109375	1580.025512695312	1086.439697265625	-512.42578125	1553.584228515625	1012.082092285156	-554.6961669921875	1425.00732421875	945.8536376953125	-574.158447265625	1206.73486328125	925.3781127929688	-634.97021484375	1204.958618164062	990.8338623046875	-499.6994018554688	938.8138427734375	959.861572265625	-586.8829345703125	922.325927734375	942.7810668945312	-572.8795166015625	1088.892211914062	920.9771728515625	-503.9292907714844	743.0594482421875	973.3460083007812	-566.98583984375	844.789306640625	940.4367065429688	-497.4080810546875	849.375244140625	949.610107421875	-510.3603515625	1572.089965820312	1364.410522460938	-530.2576904296875	1501.384033203125	1429.67626953125	-564.1842651367188	1211.150268554688	1463.570922851562	-582.2503051757812	1208.559448242188	1369.637084960938	-442.9032287597656	955.3346557617188	1438.630004882812	-513.3374633789062	946.1763916015625	1481.380615234375	-543.83642578125	1135.486083984375	1479.051513671875	-429.6877746582031	759.056884765625	1434.019287109375	-420.5033264160156	847.1586303710938	1446.712646484375	-482.7423400878906	844.4676513671875	1483.767700195312	-501.8298034667969	1761.207153320312	1266.111450195312	-370.5598754882812	1811.589721679688	1095.978149414062	-340.0101623535156	1819.538330078125	1222.511596679688	-540.9356079101562	1758.045288085938	1136.6279296875	-532.9495849609375	1027.954833984375	1018.23291015625	-493.3077087402344	1009.829223632812	1380.115600585938	-407.4403381347656	1077.780151367188	1327.915161132812	-424.928955078125	1086.160766601562	1062.695190429688	-316.4712829589844	569.8475341796875	1048.522338867188	-402.4390258789062	692.1427612304688	1020.951477050781	-263.6678466796875	50.48530578613281	1073.0283203125	-335.4867858886719	299.3950500488281	1036.957397460938	-42.3364143371582	105.9853591918945	1104.839111328125	-111.2305755615234	92.12741851806641	1147.456787109375	-145.3453521728516	68.30857849121094	1038.280639648438	-324.7463989257812	43.24496459960938	1141.733520507812	-555.3372192382812	520.3612670898438	1325.718139648438	-493.1094055175781	794.2371826171875	1361.78759765625	-745.4248046875	33.89815521240234	1294.070678710938	-602.3639526367188	390.2584228515625	1332.3759765625	-514.6294555664062	50.77984237670898	1242.179931640625	-573.9402465820312	40.55852890014648	1200.159912109375	-612.573974609375	42.12843704223633	1317.599731445312	-804.7007446289062	36.06493377685547	1246.758544921875	
207	2.06	-611.0882568359375	1114.79443359375	1266.1103515625	-618.4691162109375	1117.081176757812	1130.799072265625	-619.5933227539062	1155.179321289062	1197.964721679688	-379.9062194824219	1333.000732421875	1188.977172851562	-638.172119140625	1310.63037109375	1203.013549804688	-569.3660888671875	1597.068359375	1186.057373046875	-400.9784851074219	1470.855346679688	1183.933715820312	-640.966796875	1421.386474609375	1278.163452148438	-584.1119384765625	1578.707641601562	1085.441162109375	-506.1801147460938	1552.267700195312	1011.319152832031	-548.1165771484375	1423.623657226562	944.994384765625	-567.9118041992188	1205.42919921875	924.5919189453125	-628.7427978515625	1203.814819335938	990.0722045898438	-495.2085876464844	936.9136962890625	958.88134765625	-582.5592041015625	921.0901489257812	941.8219604492188	-567.2836303710938	1087.594116210938	920.121826171875	-501.1625061035156	741.140380859375	972.3681030273438	-563.219970703125	843.4232788085938	939.4148559570312	-493.6632995605469	847.3988037109375	948.6165771484375	-504.5174865722656	1571.010620117188	1363.552734375	-524.4632568359375	1500.318725585938	1428.83837890625	-558.0093383789062	1209.987182617188	1462.668701171875	-576.0504760742188	1207.402709960938	1368.72216796875	-436.2676696777344	954.402099609375	1437.8662109375	-506.7266540527344	945.1205444335938	1480.518798828125	-537.560546875	1134.357543945312	1478.190063476562	-422.6065979003906	758.1791381835938	1433.264038085938	-413.6244201660156	846.2948608398438	1445.971069335938	-475.9259643554688	843.4612426757812	1482.939575195312	-495.7298278808594	1760.170288085938	1265.123779296875	-364.9233703613281	1810.3173828125	1094.5693359375	-334.07568359375	1818.554443359375	1221.008422851562	-535.145751953125	1756.715087890625	1135.7939453125	-526.25390625	1026.839477539062	1017.59130859375	-487.4416809082031	1008.490112304688	1379.524047851562	-401.4293823242188	1076.480712890625	1327.577392578125	-418.3121032714844	1084.965087890625	1062.313720703125	-311.1637573242188	568.7027587890625	1048.082641601562	-396.604248046875	690.8800659179688	1020.598571777344	-250.1610412597656	50.39530944824219	1072.433471679688	-326.349609375	298.4545593261719	1036.455444335938	-29.55243492126465	108.7095108032227	1104.912963867188	-98.43297576904297	94.18418884277344	1147.221923828125	-131.8478851318359	69.66237640380859	1038.126953125	-311.3351745605469	42.51194000244141	1140.945922851562	-550.7177124023438	519.185546875	1324.576538085938	-487.698486328125	792.8956909179688	1360.816162109375	-745.2618408203125	34.49995422363281	1293.642944335938	-598.77783203125	389.3658447265625	1331.265625	-514.1880493164062	49.90899276733398	1241.587890625	-573.61767578125	39.90518569946289	1199.823852539062	-612.5014038085938	42.17605209350586	1317.427612304688	-804.4718627929688	36.86521148681641	1246.387451171875	
208	2.07	-604.8031616210938	1113.531005859375	1265.24658203125	-611.8335571289062	1115.889282226562	1129.855712890625	-613.0499877929688	1153.893310546875	1197.053100585938	-373.487548828125	1331.825805664062	1188.436279296875	-631.7562255859375	1309.364135742188	1202.077026367188	-563.0933227539062	1595.830688476562	1185.020263671875	-394.6039123535156	1469.662963867188	1183.22509765625	-634.7525634765625	1420.176879882812	1277.133422851562	-577.68408203125	1577.364868164062	1084.353393554688	-499.7501220703125	1550.898681640625	1010.462951660156	-541.4188842773438	1422.210815429688	944.0765991210938	-561.5494995117188	1204.091430664062	923.7403564453125	-622.4103393554688	1202.633666992188	989.2405395507812	-490.4991149902344	935.0281372070312	957.835205078125	-577.9896850585938	919.84033203125	940.7893676757812	-561.536865234375	1086.268310546875	919.2062377929688	-498.0959777832031	739.2462768554688	971.3256225585938	-559.1948852539062	842.0437622070312	938.329345703125	-489.6611328125	845.44677734375	947.5594482421875	-498.4999389648438	1569.932495117188	1362.621826171875	-518.48486328125	1499.256469726562	1427.931884765625	-551.6288452148438	1208.822265625	1461.693237304688	-569.6708984375	1206.245239257812	1367.72607421875	-429.5081176757812	953.443115234375	1437.003540039062	-499.98876953125	944.0550537109375	1479.561767578125	-531.1084594726562	1133.226440429688	1477.239868164062	-415.458740234375	757.275634765625	1432.412353515625	-406.6437377929688	845.406005859375	1445.140502929688	-469.01708984375	842.4418334960938	1482.020263671875	-489.5390014648438	1759.104858398438	1264.0478515625	-359.2149047851562	1809.051513671875	1093.063232421875	-328.0587158203125	1817.596801757812	1219.404541015625	-529.263916015625	1755.339233398438	1134.880004882812	-519.399658203125	1025.727783203125	1016.849609375	-481.454345703125	1007.137817382812	1378.841918945312	-395.2894592285156	1075.169921875	1327.164428710938	-411.5547790527344	1083.766235351562	1061.854736328125	-305.5187072753906	567.5829467773438	1047.578002929688	-390.3965454101562	689.6755981445312	1020.19873046875	-237.7108917236328	50.23715209960938	1071.859375	-317.578857421875	297.512451171875	1035.955932617188	-17.70048904418945	111.0198211669922	1104.417602539062	-86.46651458740234	95.90491485595703	1146.616577148438	-119.5042495727539	70.75130462646484	1037.680786132812	-298.8017883300781	41.821533203125	1140.364379882812	-546.0693359375	518.0196533203125	1323.422973632812	-482.1975402832031	791.5474243164062	1359.802001953125	-745.1133422851562	35.15966796875	1293.185180664062	-595.191650390625	388.5164794921875	1330.169677734375	-513.7445678710938	49.12343215942383	1241.0048828125	-573.3312377929688	39.34620666503906	1199.50439453125	-612.4363403320312	42.23407745361328	1317.228271484375	-804.2686767578125	37.80531692504883	1245.972290039062	
209	2.08	-598.3762817382812	1112.258911132812	1264.259155273438	-605.0845947265625	1114.711059570312	1128.819702148438	-606.4010009765625	1152.617553710938	1196.047607421875	-366.9526977539062	1330.635009765625	1187.809204101562	-625.1730346679688	1308.093017578125	1201.11083984375	-556.682861328125	1594.593994140625	1183.9140625	-388.0977172851562	1468.45556640625	1182.426391601562	-628.3892822265625	1418.988647460938	1276.0849609375	-571.1278686523438	1576.01220703125	1083.180419921875	-493.1375122070312	1549.489624023438	1009.509338378906	-534.614501953125	1420.778564453125	943.10302734375	-555.0775756835938	1202.73046875	922.822265625	-615.9735107421875	1201.422607421875	988.3428955078125	-485.5621337890625	933.1710815429688	956.72509765625	-573.168701171875	918.5789794921875	939.6873168945312	-555.6362915039062	1084.923950195312	918.230712890625	-494.6989135742188	737.3934326171875	970.217041015625	-554.897216796875	840.6605224609375	937.183349609375	-485.3833923339844	843.5393676757812	946.4412841796875	-492.300537109375	1568.861938476562	1361.619995117188	-512.3112182617188	1498.202026367188	1426.958862304688	-545.0514526367188	1207.660278320312	1460.652587890625	-563.1027221679688	1205.089111328125	1366.652465820312	-422.6276550292969	952.4653930664062	1436.036987304688	-493.1262817382812	942.9832763671875	1478.512329101562	-524.4840698242188	1132.09912109375	1476.20654296875	-408.2486267089844	756.3480834960938	1431.454345703125	-399.5641784667969	844.4955444335938	1444.208618164062	-462.0143737792969	841.4140625	1481.00341796875	-483.2522888183594	1758.016967773438	1262.888793945312	-353.4365844726562	1807.801391601562	1091.456909179688	-321.9595642089844	1816.674682617188	1217.697387695312	-523.2899780273438	1753.919555664062	1133.880004882812	-512.3846435546875	1024.621337890625	1016.001403808594	-475.3497924804688	1005.793090820312	1378.061767578125	-389.0224914550781	1073.859130859375	1326.668090820312	-404.6492919921875	1082.56689453125	1061.30419921875	-299.5179748535156	566.4903564453125	1047.001708984375	-383.8246459960938	688.521484375	1019.731262207031	-226.3452301025391	49.96328735351562	1071.32763671875	-309.1600341796875	296.5448303222656	1035.456298828125	-6.797004222869873	112.7930679321289	1103.406616210938	-75.35829925537109	97.19097137451172	1145.696044921875	-108.340950012207	71.48625946044922	1036.974731445312	-287.1914367675781	41.12617111206055	1140	-541.4330444335938	516.8968505859375	1322.289916992188	-476.626220703125	790.2180786132812	1358.748779296875	-744.97021484375	35.87674331665039	1292.704223632812	-591.6538696289062	387.7379455566406	1329.118041992188	-513.3119506835938	48.42221069335938	1240.461547851562	-573.0853881835938	38.89009857177734	1199.218627929688	-612.3762817382812	42.30000686645508	1317.008178710938	-804.1065063476562	38.89404678344727	1245.507446289062	
